<svg width="64" height="64" viewBox="0 0 64 64" fill="none" xmlns="http://www.w3.org/2000/svg">
<path fill-rule="evenodd" clip-rule="evenodd" d="M32 1.5C15.1553 1.5 1.5 15.1553 1.5 32C1.5 48.8447 15.1553 62.5 32 62.5C48.8447 62.5 62.5 48.8447 62.5 32C62.5 15.1553 48.8447 1.5 32 1.5ZM0.5 32C0.5 14.603 14.603 0.5 32 0.5C49.397 0.5 63.5 14.603 63.5 32C63.5 49.397 49.397 63.5 32 63.5C14.603 63.5 0.5 49.397 0.5 32ZM26.366 18.4755C26.0227 19.2307 25.7973 20.3091 25.7973 21.527C25.7973 22.7449 26.0227 23.8234 26.366 24.5786C26.7298 25.3789 27.1301 25.6351 27.3919 25.6351C27.6537 25.6351 28.054 25.3789 28.4178 24.5786C28.7611 23.8234 28.9865 22.7449 28.9865 21.527C28.9865 20.3091 28.7611 19.2307 28.4178 18.4755C28.054 17.6752 27.6537 17.4189 27.3919 17.4189C27.1301 17.4189 26.7298 17.6752 26.366 18.4755ZM25.4556 18.0617C25.8499 17.1942 26.4968 16.4189 27.3919 16.4189C28.2869 16.4189 28.9339 17.1942 29.3282 18.0617C29.743 18.9743 29.9865 20.2 29.9865 21.527C29.9865 22.8541 29.743 24.0797 29.3282 24.9924C28.9339 25.8598 28.2869 26.6351 27.3919 26.6351C26.4968 26.6351 25.8499 25.8598 25.4556 24.9924C25.0408 24.0797 24.7973 22.8541 24.7973 21.527C24.7973 20.2 25.0408 18.9743 25.4556 18.0617ZM35.5822 18.4755C35.2389 19.2307 35.0135 20.3091 35.0135 21.527C35.0135 22.7449 35.2389 23.8234 35.5822 24.5786C35.946 25.3789 36.3463 25.6351 36.6081 25.6351C36.8699 25.6351 37.2702 25.3789 37.634 24.5786C37.9773 23.8234 38.2027 22.7449 38.2027 21.527C38.2027 20.3091 37.9773 19.2307 37.634 18.4755C37.2702 17.6752 36.8699 17.4189 36.6081 17.4189C36.3463 17.4189 35.946 17.6752 35.5822 18.4755ZM34.6718 18.0617C35.0661 17.1942 35.7131 16.4189 36.6081 16.4189C37.5032 16.4189 38.1501 17.1942 38.5444 18.0617C38.9592 18.9743 39.2027 20.2 39.2027 21.527C39.2027 22.8541 38.9592 24.0797 38.5444 24.9924C38.1501 25.8598 37.5032 26.6351 36.6081 26.6351C35.7131 26.6351 35.0661 25.8598 34.6718 24.9924C34.257 24.0797 34.0135 22.8541 34.0135 21.527C34.0135 20.2 34.257 18.9743 34.6718 18.0617ZM12.3919 32C12.3919 42.8293 21.1707 51.6081 32 51.6081C42.8293 51.6081 51.6081 42.8293 51.6081 32H52.6081C52.6081 43.3815 43.3815 52.6081 32 52.6081C20.6185 52.6081 11.3919 43.3815 11.3919 32H12.3919Z" fill="#111111"/>
</svg>
