<svg width="64" height="64" viewBox="0 0 64 64" fill="none" xmlns="http://www.w3.org/2000/svg">
<path d="M52.1081 32C52.1081 43.1054 43.1054 52.1081 32 52.1081C20.8946 52.1081 11.8919 43.1054 11.8919 32M63 32C63 49.1208 49.1208 63 32 63C14.8792 63 1 49.1208 1 32C1 14.8792 14.8792 1 32 1C49.1208 1 63 14.8792 63 32ZM29.4865 21.527C29.4865 24.072 28.5487 26.1351 27.3919 26.1351C26.2351 26.1351 25.2973 24.072 25.2973 21.527C25.2973 18.982 26.2351 16.9189 27.3919 16.9189C28.5487 16.9189 29.4865 18.982 29.4865 21.527ZM38.7027 21.527C38.7027 24.072 37.7649 26.1351 36.6081 26.1351C35.4513 26.1351 34.5135 24.072 34.5135 21.527C34.5135 18.982 35.4513 16.9189 36.6081 16.9189C37.7649 16.9189 38.7027 18.982 38.7027 21.527Z" stroke="#111111"/>
</svg>
