<svg width="12" height="12" viewBox="0 0 12 12" fill="none" xmlns="http://www.w3.org/2000/svg">
<path fill-rule="evenodd" clip-rule="evenodd" d="M2 1.0089L10 1.00891C10.55 1.00891 11 1.4544 11 2.01002L11 9.99498C11 10.5456 10.55 10.9861 10 10.9861L2 10.9861C1.45 10.9861 1 10.5456 1 9.99497L1 8.00163L2 8.00163L2 9.99998L10 9.99999L10 2.00001L2 2L2 3.9983L1 3.9983L1 2.01001C1 1.4594 1.45 1.0089 2 1.0089ZM8 5.99996L6 8.00219L6 6.50052L1 6.50052L1 5.49941L6 5.49941L6 3.99774L8 5.99996Z" fill="#111111"/>
</svg>
