<svg width="304" height="86" viewBox="0 0 304 86" fill="none" xmlns="http://www.w3.org/2000/svg">
<mask id="path-1-inside-1_13_185" fill="white">
<path d="M87.02 42.9999C87.02 66.7224 67.7744 85.9545 44.0334 85.9545C20.2917 85.9545 1.04688 66.7232 1.04688 42.9999C1.04688 19.2759 20.2925 0.0454102 44.0334 0.0454102C67.7736 0.0454102 87.02 19.2767 87.02 42.9999Z"/>
</mask>
<path d="M86.02 42.9999C86.02 66.1694 67.2228 84.9545 44.0334 84.9545V86.9545C68.326 86.9545 88.02 67.2754 88.02 42.9999H86.02ZM44.0334 84.9545C20.8432 84.9545 2.04688 66.1702 2.04688 42.9999H0.046875C0.046875 67.2762 19.7401 86.9545 44.0334 86.9545V84.9545ZM2.04688 42.9999C2.04688 19.8289 20.8441 1.04541 44.0334 1.04541V-0.95459C19.7409 -0.95459 0.046875 18.7229 0.046875 42.9999H2.04688ZM44.0334 1.04541C67.222 1.04541 86.02 19.8297 86.02 42.9999H88.02C88.02 18.7237 68.3251 -0.95459 44.0334 -0.95459V1.04541Z" fill="#111111" mask="url(#path-1-inside-1_13_185)"/>
<path d="M104.258 85.4545L152.524 1.05262L200.79 85.4545H104.258Z" stroke="#111111"/>
<rect x="218.527" y="0.54541" width="84.9732" height="84.9091" stroke="#111111"/>
</svg>
