<svg width="12" height="12" viewBox="0 0 12 12" fill="none" xmlns="http://www.w3.org/2000/svg">
<path fill-rule="evenodd" clip-rule="evenodd" d="M4.96102 4C5.47899 4.50791 5.8 5.21593 5.8 6C5.8 6.78407 5.47899 7.49209 4.96102 8H9C10.1037 8 11 7.10372 11 6C11 4.89628 10.1037 4 9 4H4.96102ZM3 3H9C10.656 3 12 4.344 12 6C12 7.656 10.656 9 9 9H3C1.344 9 0 7.656 0 6C0 4.344 1.344 3 3 3ZM1.2 6C1.2 6.996 2.004 7.8 3 7.8C3.996 7.8 4.8 6.996 4.8 6C4.8 5.004 3.996 4.2 3 4.2C2.004 4.2 1.2 5.004 1.2 6Z" fill="#111111"/>
</svg>
