<svg width="65" height="65" viewBox="0 0 65 65" fill="none" xmlns="http://www.w3.org/2000/svg">
<g clip-path="url(#clip0_272_805)">
<mask id="mask0_272_805" style="mask-type:luminance" maskUnits="userSpaceOnUse" x="0" y="0" width="65" height="65">
<path d="M65 0H0V65H65V0Z" fill="white"/>
</mask>
<g mask="url(#mask0_272_805)">
<path d="M0.677734 32.4987C0.677734 14.8945 14.8965 0.675781 32.5007 0.675781C50.1048 0.675781 64.3236 14.8945 64.3236 32.4987C64.3236 50.1029 50.1048 64.3216 32.5007 64.3216C14.8965 64.3216 0.677734 50.1029 0.677734 32.4987ZM23.2923 32.4987C23.2923 27.4883 27.3548 23.2904 32.5007 23.2904C37.6465 23.2904 41.709 27.3529 41.709 32.4987C41.709 37.6445 37.6465 41.707 32.5007 41.707C27.3548 41.707 23.2923 37.6445 23.2923 32.4987ZM12.1882 32.4987C12.1882 21.2591 21.2611 12.1862 32.5007 12.1862C43.7402 12.1862 52.8131 21.2591 52.8131 32.4987C52.8131 43.7383 43.7402 52.8112 32.5007 52.8112C21.2611 52.8112 12.1882 43.7383 12.1882 32.4987Z" stroke="#111111"/>
</g>
</g>
<defs>
<clipPath id="clip0_272_805">
<rect width="65" height="65" fill="white"/>
</clipPath>
</defs>
</svg>
