<svg width="64" height="64" viewBox="0 0 64 64" fill="none" xmlns="http://www.w3.org/2000/svg">
<path fill-rule="evenodd" clip-rule="evenodd" d="M32 52.2568C43.1875 52.2568 52.2568 43.1875 52.2568 32H53.2568C53.2568 43.7398 43.7398 53.2568 32 53.2568C20.2602 53.2568 10.7432 43.7398 10.7432 32H11.7432C11.7432 43.1875 20.8125 52.2568 32 52.2568ZM28.3169 24.3458C28.6724 23.5637 28.9054 22.4482 28.9054 21.1892C28.9054 19.9302 28.6724 18.8147 28.3169 18.0326C27.9409 17.2053 27.5237 16.9324 27.2432 16.9324C26.9628 16.9324 26.5456 17.2053 26.1695 18.0326C25.814 18.8147 25.5811 19.9302 25.5811 21.1892C25.5811 22.4482 25.814 23.5637 26.1695 24.3458C26.5456 25.1731 26.9628 25.4459 27.2432 25.4459C27.5237 25.4459 27.9409 25.1731 28.3169 24.3458ZM29.2273 24.7596C28.8208 25.654 28.1569 26.4459 27.2432 26.4459C26.3295 26.4459 25.6657 25.654 25.2592 24.7596C24.8321 23.8201 24.5811 22.5573 24.5811 21.1892C24.5811 19.8211 24.8321 18.5583 25.2592 17.6188C25.6657 16.7244 26.3295 15.9324 27.2432 15.9324C28.1569 15.9324 28.8208 16.7244 29.2273 17.6188C29.6544 18.5583 29.9054 19.8211 29.9054 21.1892C29.9054 22.5573 29.6544 23.8201 29.2273 24.7596ZM37.8305 24.3458C38.186 23.5637 38.4189 22.4482 38.4189 21.1892C38.4189 19.9302 38.186 18.8147 37.8305 18.0326C37.4544 17.2053 37.0372 16.9324 36.7568 16.9324C36.4763 16.9324 36.0591 17.2053 35.6831 18.0326C35.3276 18.8147 35.0946 19.9302 35.0946 21.1892C35.0946 22.4482 35.3276 23.5637 35.6831 24.3458C36.0591 25.1731 36.4763 25.4459 36.7568 25.4459C37.0372 25.4459 37.4544 25.1731 37.8305 24.3458ZM38.7408 24.7596C38.3343 25.654 37.6705 26.4459 36.7568 26.4459C35.8431 26.4459 35.1792 25.654 34.7727 24.7596C34.3456 23.8201 34.0946 22.5573 34.0946 21.1892C34.0946 19.8211 34.3456 18.5583 34.7727 17.6188C35.1792 16.7244 35.8431 15.9324 36.7568 15.9324C37.6705 15.9324 38.3343 16.7244 38.7408 17.6188C39.1679 18.5583 39.4189 19.8211 39.4189 21.1892C39.4189 22.5573 39.1679 23.8201 38.7408 24.7596ZM32 63C49.1208 63 63 49.1208 63 32C63 14.8792 49.1208 1 32 1C14.8792 1 1 14.8792 1 32C1 49.1208 14.8792 63 32 63ZM32 64C49.6731 64 64 49.6731 64 32C64 14.3269 49.6731 0 32 0C14.3269 0 0 14.3269 0 32C0 49.6731 14.3269 64 32 64Z" fill="#111111"/>
</svg>
