<svg width="164" height="164" viewBox="0 0 164 164" fill="none" xmlns="http://www.w3.org/2000/svg">
<path fill-rule="evenodd" clip-rule="evenodd" d="M82 134.689C111.099 134.689 134.689 111.099 134.689 82H135.689C135.689 111.652 111.652 135.689 82 135.689C52.3483 135.689 28.3108 111.652 28.3108 82H29.3108C29.3108 111.099 52.9006 134.689 82 134.689ZM73.2734 62.7095C74.2402 60.5824 74.8514 57.6087 74.8514 54.2973C74.8514 50.9859 74.2402 48.0122 73.2734 45.8851C72.286 43.7129 71.0242 42.6081 69.8108 42.6081C68.5975 42.6081 67.3356 43.7129 66.3482 45.8851C65.3814 48.0122 64.7703 50.9859 64.7703 54.2973C64.7703 57.6087 65.3814 60.5824 66.3482 62.7095C67.3356 64.8817 68.5975 65.9865 69.8108 65.9865C71.0242 65.9865 72.286 64.8817 73.2734 62.7095ZM74.1838 63.1233C73.1658 65.3626 71.6574 66.9865 69.8108 66.9865C67.9642 66.9865 66.4558 65.3626 65.4379 63.1233C64.3995 60.8387 63.7703 57.7178 63.7703 54.2973C63.7703 50.8768 64.3995 47.7559 65.4379 45.4713C66.4558 43.232 67.9642 41.6081 69.8108 41.6081C71.6574 41.6081 73.1658 43.232 74.1838 45.4713C75.2222 47.7559 75.8514 50.8768 75.8514 54.2973C75.8514 57.7178 75.2222 60.8387 74.1838 63.1233ZM97.6518 62.7095C98.6186 60.5824 99.2297 57.6087 99.2297 54.2973C99.2297 50.9859 98.6186 48.0122 97.6518 45.8851C96.6644 43.7129 95.4025 42.6081 94.1892 42.6081C92.9758 42.6081 91.714 43.7129 90.7266 45.8851C89.7598 48.0122 89.1487 50.9859 89.1487 54.2973C89.1487 57.6087 89.7598 60.5824 90.7266 62.7095C91.714 64.8817 92.9758 65.9865 94.1892 65.9865C95.4025 65.9865 96.6644 64.8817 97.6518 62.7095ZM98.5621 63.1233C97.5442 65.3626 96.0358 66.9865 94.1892 66.9865C92.3426 66.9865 90.8342 65.3626 89.8163 63.1233C88.7778 60.8387 88.1487 57.7178 88.1487 54.2973C88.1487 50.8768 88.7778 47.7559 89.8163 45.4713C90.8342 43.232 92.3426 41.6081 94.1892 41.6081C96.0358 41.6081 97.5442 43.232 98.5621 45.4713C99.6005 47.7559 100.23 50.8768 100.23 54.2973C100.23 57.7178 99.6005 60.8387 98.5621 63.1233ZM82 163C126.735 163 163 126.735 163 82C163 37.2649 126.735 1 82 1C37.2649 1 1 37.2649 1 82C1 126.735 37.2649 163 82 163ZM82 164C127.287 164 164 127.287 164 82C164 36.7126 127.287 0 82 0C36.7126 0 0 36.7126 0 82C0 127.287 36.7126 164 82 164Z" fill="#111111"/>
</svg>
