<svg width="303" height="86" viewBox="0 0 303 86" fill="none" xmlns="http://www.w3.org/2000/svg">
<g clip-path="url(#clip0_4120_3107)">
<path fill-rule="evenodd" clip-rule="evenodd" d="M43.0334 84.9091C66.2228 84.9091 85.02 66.124 85.02 42.9545C85.02 19.7843 66.222 1 43.0334 1C19.8441 1 1.04688 19.7834 1.04688 42.9545C1.04688 66.1248 19.8432 84.9091 43.0334 84.9091ZM43.0334 85.9091C66.7744 85.9091 86.02 66.677 86.02 42.9545C86.02 19.2313 66.7736 0 43.0334 0C19.2925 0 0.046875 19.2304 0.046875 42.9545C0.046875 66.6778 19.2917 85.9091 43.0334 85.9091Z" fill="#111111"/>
<path fill-rule="evenodd" clip-rule="evenodd" d="M151.524 0L102.396 85.9091H200.652L151.524 0ZM151.524 2.01443L104.12 84.9091H198.928L151.524 2.01443Z" fill="#111111"/>
<path fill-rule="evenodd" clip-rule="evenodd" d="M302 1H218.027V84.9091H302V1ZM217.027 0V85.9091H303V0H217.027Z" fill="#111111"/>
</g>
<defs>
<clipPath id="clip0_4120_3107">
<rect width="303" height="86" fill="white"/>
</clipPath>
</defs>
</svg>
